<?xml version="1.0" encoding="UTF-8" standalone="no"?><!DOCTYPE svg PUBLIC "-//W3C//DTD SVG 1.1//EN" "http://www.w3.org/Graphics/SVG/1.1/DTD/svg11.dtd"><svg width="100%" height="100%" viewBox="0 0 512 512" version="1.1" xmlns="http://www.w3.org/2000/svg" xmlns:xlink="http://www.w3.org/1999/xlink" xml:space="preserve" style="fill-rule:evenodd;clip-rule:evenodd;stroke-linejoin:round;stroke-miterlimit:1.41421;"><g id="Icon"><path d="M395.45,239.067l43.464,-19.978c27.174,-7.382 43.371,-35.653 35.999,-62.827c-7.383,-27.173 -35.654,-43.371 -62.827,-35.989l-68.069,47.039c-6.06,2.784 -12.585,-2.541 -11.18,-9.057c1.648,-7.634 18.265,-9.021 18.265,-47.179c0,-43.222 -8.863,-111.076 -86.203,-111.076c-81.203,0 -90.512,62.175 -90.512,111.709c0,28.514 17.203,40.672 18.442,46.546c1.34,6.376 -5.065,11.571 -11.041,8.983l-81.864,-51.954c-27.173,-7.382 -55.445,8.815 -62.827,35.998c-7.392,27.173 8.806,55.445 35.979,62.827l55.92,24.213c18.721,11.469 54.421,41.072 37.441,92.774l-45.81,79.966c-25.395,6.097 -43.613,31.194 -38.456,59.298c4.515,24.53 27.108,41.64 52.066,41.64l16.877,0c0.736,0 1.453,-0.084 2.188,-0.112c0.791,-0.037 1.583,-0.046 2.365,-0.121c2.634,-0.232 5.194,-0.698 7.698,-1.322c0.643,-0.158 1.285,-0.316 1.918,-0.493c2.485,-0.726 4.878,-1.638 7.196,-2.709c0.735,-0.335 1.452,-0.68 2.169,-1.052c2.113,-1.098 4.124,-2.355 6.051,-3.724c0.838,-0.595 1.657,-1.191 2.457,-1.843c1.769,-1.424 3.426,-2.988 4.99,-4.636c0.717,-0.754 1.424,-1.498 2.095,-2.308c1.629,-1.937 3.09,-4.022 4.431,-6.182c0.251,-0.409 0.586,-0.726 0.819,-1.145l51.879,-73.495c7.532,-10.668 23.357,-10.668 30.888,0l51.88,73.495c0.242,0.419 0.567,0.736 0.819,1.145c1.34,2.169 2.793,4.245 4.431,6.182c0.67,0.8 1.378,1.554 2.094,2.308c1.564,1.648 3.221,3.203 4.99,4.636c0.801,0.643 1.62,1.248 2.458,1.843c1.927,1.378 3.937,2.626 6.051,3.724c0.716,0.372 1.433,0.708 2.169,1.052c2.318,1.071 4.71,1.992 7.196,2.709c0.642,0.186 1.275,0.335 1.917,0.493c2.504,0.624 5.064,1.09 7.699,1.322c0.791,0.075 1.573,0.084 2.364,0.121c0.754,0.028 1.471,0.112 2.207,0.112l16.877,0c24.948,0 47.551,-17.11 52.056,-41.649c5.167,-28.104 -13.051,-53.201 -38.455,-59.299l-45.81,-79.965c-16.617,-50.613 17.249,-80.049 36.249,-92.02Z" style="fill:#ff8700;fill-rule:nonzero;"/><circle cx="262.824" cy="330.473" r="23.273" style="fill:#ed3f32;"/><circle cx="262.824" cy="246.691" r="23.273" style="fill:#88c057;"/><circle cx="295.405" cy="65.164" r="18.618" style="fill:#fff;"/><circle cx="230.242" cy="65.164" r="18.618" style="fill:#fff;"/><path d="M262.824,152.436c-24.772,-0.251 -51.2,-16.682 -51.2,-40.727c0,-5.148 4.161,-9.309 9.309,-9.309c5.148,0 9.309,4.161 9.309,9.309c0,11.19 15.881,21.932 32.684,22.109c16.347,0 32.479,-10.957 32.479,-22.109c0,-5.148 4.162,-9.309 9.309,-9.309c5.148,0 9.31,4.161 9.31,9.309c0,23.999 -26.978,40.727 -51.2,40.727Z" style="fill:#fff;fill-rule:nonzero;"/><path d="M409.014,122.396l-15.444,10.668l44.851,86.258l0.493,-0.223c6.042,-1.639 11.497,-4.357 16.31,-7.82l-46.21,-88.883Z" style="fill:#fff;fill-rule:nonzero;"/><path d="M301.94,446.399l92.244,-54.254l-9.253,-16.16l-93.761,55.147l10.77,15.267Z" style="fill:#fff;fill-rule:nonzero;"/><path d="M320.512,472.716l96.768,-56.925c-3.835,-2.067 -7.931,-3.696 -12.26,-4.739l-4.133,-7.224l-91.146,53.611l10.771,15.277Z" style="fill:#fff;fill-rule:nonzero;"/><path d="M239.113,424.569l-98.127,-49.059l-9.262,16.179l96.526,48.268l10.863,-15.388Z" style="fill:#fff;fill-rule:nonzero;"/><path d="M210.786,464.701l10.891,-15.426l-96.367,-46.396l-4.683,8.183c-4.18,1.005 -8.136,2.569 -11.85,4.524l102.009,49.115Z" style="fill:#fff;fill-rule:nonzero;"/><path d="M62.678,209.976c3.258,1.713 6.712,3.137 10.398,4.133l6.824,2.951l36.519,-91.303l-15.993,-10.147l-37.748,94.366Z" style="fill:#fff;fill-rule:nonzero;"/></g></svg>